<?xml version="1.0" encoding="UTF-8"?>
<!-- Generator: visioncortex VTracer 0.6.12 -->
<svg version="1.1" xmlns="http://www.w3.org/2000/svg" width="512" height="512">
<path d="M0 0 C0.99 0.66 1.98 1.32 3 2 C3.33 0.35 3.66 -1.3 4 -3 C12.34 -11.34 23.31 -6.63 30.81 0.75 C34.63 5.84 37 10.51 37 17 C39.31 16.67 41.62 16.34 44 16 C57.6 15.28 78.83 15.83 89 26 C94.33 27.69 99.66 29.35 105 31 C106.92 31.91 108.84 32.81 110.81 33.75 C116.51 36.22 120.83 36.54 127 37 C148.26 41.06 167.01 50.21 181 67 C184.3 67 187.6 67 191 67 C210.01 71.75 214 84.39 214 103 C209.78 109.33 207.55 112.49 200 114 C199.55 118.52 199.55 118.52 199.75 124.25 C200.06 134.68 200.06 134.68 199 140 C200.98 141.98 202.96 143.96 205 146 C205 146.66 205 147.32 205 148 C205.66 148 206.32 148 207 148 C216.46 167.38 216.46 167.38 210 176 C209.34 176 208.68 176 208 176 C208.02 177.09 208.02 177.09 208.12 182.62 C207.98 191.47 207.66 196 198 196 C197.34 195.34 196.68 194.68 196 194 C195.4 195.86 194.8 197.71 194.19 199.62 C190.63 210 190.63 210 184 210 C183.34 212.97 182.68 215.94 182 219 C176 224 176 224 171 223 C169.35 225.31 167.7 227.62 166 230 C158.98 235.14 152.4 238.6 144 241 C145.65 243.64 147.3 246.28 149 249 C150 257 150 257 150 260 C151.98 260.99 153.96 261.98 156 263 C164.47 273.16 161.68 281.93 159.56 294.56 C159 302 159 302 165 306 C170 312 170 312 170 316 C170.99 315.67 171.98 315.34 173 315 C187 315 187 315 191 321 C191 325 191 329 191 333 C192.65 333.99 194.3 334.98 196 336 C201.4 341.4 200.7 345.84 197 352 C189.85 358.13 184.8 360.09 176 363 C173.69 363.99 171.38 364.98 169 366 C174.15 368.58 181.13 368.37 186.79 369.09 C198.54 371.15 198.54 371.15 200 377 C187.89 386.69 171.04 387.26 156.12 389.12 C153.49 389.46 150.85 389.79 148.13 390.13 C131.61 392.14 115.47 393.13 98.81 393.13 C94.97 393.13 91.13 393.14 87.17 393.14 C85.1 393.14 85.1 393.14 74.64 393.13 C72.51 393.13 72.51 393.13 61.73 393.14 C52.71 393.14 43.69 393.13 34.67 393.13 C20.88 393.13 7.09 393.13 -6.7 393.14 C-15.46 393.14 -24.22 393.13 -32.98 393.13 C-35.04 393.13 -35.04 393.13 -45.48 393.14 C-49.33 393.14 -53.19 393.13 -57.16 393.13 C-60.54 393.13 -63.92 393.13 -67.41 393.13 C-80.74 392.95 -94.02 392.35 -107.29 390.91 C-109.22 390.71 -111.15 390.5 -113.14 390.28 C-114.12 390.17 -114.12 390.17 -119.06 389.62 C-121.02 389.42 -122.98 389.21 -124.99 388.99 C-167.68 384.32 -167.68 384.32 -174 378 C-171.53 365.67 -148.56 367.03 -138 366 C-145 363 -145 363 -151.5 361.06 C-164.2 357.03 -171.92 351.73 -168 338 C-162 334 -162 334 -159 333 C-159.33 332.5 -159.33 332.5 -161 330 C-161 321.53 -160.65 318.82 -153 315 C-150.71 315.12 -148.42 315.25 -146.06 315.38 C-139 315 -139 315 -134 307 C-129 303 -129 303 -124 302 C-124.66 300.35 -125.32 298.7 -126 297 C-126.53 292.89 -126.96 288.76 -127.31 284.62 C-127.51 282.43 -127.72 280.24 -127.93 277.98 C-128.04 268.79 -125.27 263.13 -117 259 C-111.67 259 -106.33 259 -101 259 C-101 257 -101 257 -106 255.75 C-112 254 -112 254 -120 248 C-124 246 -124 246 -130 245 C-136 240 -136 240 -138 237 C-139.32 237.33 -140.64 237.66 -142 238 C-150.68 232.79 -154 227.92 -154 218 C-155.32 218.33 -156.64 218.66 -158 219 C-169.52 213.24 -163.31 199.01 -159 190 C-157.68 188.02 -156.36 186.04 -155 184 C-155.99 181.36 -156.98 178.72 -158 176 C-158.33 175.01 -158.66 174.02 -159 173 C-160.86 172.69 -162.71 172.38 -164.62 172.06 C-173.93 170.51 -177.34 169.31 -180 160 C-180.66 159.67 -181.32 159.34 -182 159 C-184.15 136.35 -178.92 123.66 -155 121 C-154.84 120.01 -154.84 120.01 -154 115 C-153.34 115 -152.68 115 -152 115 C-151.34 113.02 -150.68 111.04 -150 109 C-146.02 102.67 -142.3 97.3 -137 92 C-131 85 -131 85 -128.19 80.69 C-122.63 72.52 -109.12 54 -98 54 C-98.16 53.17 -98.16 53.17 -99 49 C-89.81 39.95 -78.24 35.5 -66 32 C-66.16 31.01 -66.16 31.01 -67 26 C-60.03 19.03 -53.62 19 -44 19 C-44.66 17.84 -44.66 17.84 -48 12 C-51.56 -18.76 -16.33 -13.78 0 0 Z " fill="#A18B50" transform="translate(242,49)"/>
<path d="M0 0 C0.99 0.66 1.98 1.32 3 2 C3.33 0.35 3.66 -1.3 4 -3 C12.34 -11.34 23.31 -6.63 30.81 0.75 C34.63 5.84 37 10.51 37 17 C39.31 16.67 41.62 16.34 44 16 C57.6 15.28 78.83 15.83 89 26 C94.33 27.69 99.66 29.35 105 31 C106.92 31.91 108.84 32.81 110.81 33.75 C116.51 36.22 120.83 36.54 127 37 C148.26 41.06 167.01 50.21 181 67 C184.3 67 187.6 67 191 67 C210.01 71.75 214 84.39 214 103 C209.78 109.33 207.55 112.49 200 114 C200.07 119.01 200.14 124.02 200.26 129.02 C198.29 174.72 158.04 204.26 115.44 206.44 C87.39 205.14 56.56 192.52 50 163 C48.35 160.36 46.7 157.72 45 155 C44.67 154.01 44.34 153.02 44 152 C42.68 151.34 41.36 150.68 40 150 C38.68 149.34 38.68 149.34 32 146 C12.8 144.4 3.29 156.28 1.06 174.81 C-4.7 219.21 -49.11 236.51 -89 234 C-119.86 228.78 -138.7 211.12 -154 185 C-154.66 184.34 -155.32 183.68 -156 183 C-156.29 181.35 -156.58 179.7 -156.88 178 C-159.97 170.71 -163.49 171.75 -171 171 C-178 167 -178 167 -180 160 C-180.66 159.67 -181.32 159.34 -182 159 C-184.15 136.35 -178.92 123.66 -155 121 C-154.84 120.01 -154.84 120.01 -154 115 C-153.34 115 -152.68 115 -152 115 C-151.34 113.02 -150.68 111.04 -150 109 C-146.02 102.67 -142.3 97.3 -137 92 C-131 85 -131 85 -128.19 80.69 C-122.63 72.52 -109.12 54 -98 54 C-98.16 53.17 -98.16 53.17 -99 49 C-89.81 39.95 -78.24 35.5 -66 32 C-66.16 31.01 -66.16 31.01 -67 26 C-60.03 19.03 -53.62 19 -44 19 C-44.66 17.84 -44.66 17.84 -48 12 C-51.56 -18.76 -16.33 -13.78 0 0 Z " fill="#2E2B2E" transform="translate(242,49)"/>
<path d="M0 0 C-0.2 4.91 -0.2 4.91 -1.03 11.05 C-1.33 13.39 -1.63 15.72 -1.94 18.12 C-2.12 19.42 -2.12 19.42 -3 26 C-3.73 31.86 -4.46 37.71 -5.19 43.57 C-5.98 49.76 -6.77 55.94 -7.56 62.12 C-7.96 65.28 -8.36 68.43 -8.77 71.68 C-8.96 73.19 -8.96 73.19 -9.94 80.82 C-10.29 83.55 -10.64 86.27 -10.99 89.08 C-13.96 109.51 -19.93 107.38 -39.6 107.4 C-44.21 107.42 -48.82 107.43 -53.57 107.44 C-58.59 107.44 -63.61 107.44 -68.78 107.43 C-73.89 107.44 -79.01 107.44 -84.27 107.45 C-95.11 107.46 -105.94 107.45 -116.78 107.45 C-133.43 107.44 -150.08 107.47 -166.73 107.5 C-177.23 107.5 -187.72 107.5 -198.22 107.5 C-200.73 107.5 -200.73 107.5 -213.43 107.53 C-218.04 107.52 -222.65 107.51 -227.4 107.5 C-231.49 107.5 -235.57 107.5 -239.78 107.5 C-258.79 106.47 -255.55 89.33 -257.12 73.62 C-257.22 72.78 -257.22 72.78 -257.68 68.49 C-261.74 28.3 -261.74 28.3 -246 22 C-239.23 21.8 -232.51 21.72 -225.74 21.73 C-221.61 21.71 -217.48 21.69 -213.35 21.66 C-206.83 21.64 -200.31 21.62 -193.79 21.62 C-187.5 21.61 -181.21 21.58 -174.93 21.54 C-172.98 21.54 -171.04 21.55 -169.03 21.55 C-149.15 21.41 -139.29 15.06 -125 2 C-116.49 -5.57 -110.64 -10.09 -100 -3 C-92 -3 -92 -3 -89 -4 C-88.01 -2.02 -87.02 -0.04 -86 2 C-75.87 7.06 -69.75 4.41 -60 0 C-55.05 -2.12 -50.04 -4.11 -45 -6 C-44.67 -6.33 -44.34 -6.66 -44 -7 C-5.62 -9.37 -5.62 -9.37 0 0 Z " fill="#33C5FD" transform="translate(397,323)"/>
<path d="M0 0 C2.28 35.27 -12.75 65.55 -50 73 C-90.76 75.35 -119.47 53.84 -126 13 C-129.95 -66.68 -15.51 -75.81 0 0 Z " fill="#F7D76B" transform="translate(417,159)"/>
<path d="M0 0 C0.99 0.66 1.98 1.32 3 2 C3.33 0.35 3.66 -1.3 4 -3 C12.34 -11.34 23.31 -6.63 30.81 0.75 C34.63 5.84 37 10.51 37 17 C39.31 16.67 41.62 16.34 44 16 C57.6 15.28 78.83 15.83 89 26 C94.33 27.67 99.66 29.34 105 31 C115 35.48 115 35.48 115 38 C109.87 38.47 104.74 38.94 99.61 39.39 C70.08 42.6 33.36 64.12 31.69 97.19 C28.81 105.38 22.62 101.95 15 101 C8.85 102.4 3.82 104.5 -2 107 C-5.44 102.25 -5.44 102.25 -9 96 C-35.76 61.86 -89.34 59 -123.38 83.94 C-124.57 84.95 -125.77 85.96 -127 87 C-127.83 87.16 -127.83 87.16 -132 88 C-127.69 77.23 -111.31 54 -98 54 C-98.16 53.17 -98.16 53.17 -99 49 C-89.81 39.95 -78.24 35.5 -66 32 C-66.16 31.01 -66.16 31.01 -67 26 C-60.03 19.03 -53.62 19 -44 19 C-45.32 16.69 -46.64 14.38 -48 12 C-51.56 -18.76 -16.33 -13.78 0 0 Z " fill="#F3D14E" transform="translate(242,49)"/>
<path d="M0 0 C1.07 40.51 -21.29 68.2 -63.06 70.5 C-104.74 68.17 -125.99 36.63 -124 -3 C-109.96 -75.44 -14.91 -67.09 0 0 Z " fill="#F7CE5D" transform="translate(231,190)"/>
<path d="M0 0 C2.79 13.34 3.16 26.18 -7.88 35.38 C-9.88 34.38 -9.88 34.38 -6.88 26.38 C-5.61 -1.77 -20.12 -25.3 -50.06 -27.12 C-58.52 -26.64 -64.24 -25.14 -71.88 -21.62 C-70.23 -21.96 -68.57 -22.28 -66.88 -22.62 C-43.1 -23.59 -26.95 -13.93 -20.88 10.38 C-19.86 35.94 -29.64 53.51 -57.25 54.75 C-83.03 53.63 -95.95 33.73 -97.12 9.12 C-94.66 -47.66 -18.83 -46.44 0 0 Z " fill="#3E1E0B" transform="translate(392.875,162.625)"/>
<path d="M0 0 C0.9 22.74 -8.2 43.95 -33.94 45.25 C-58.01 44.26 -74.16 29.76 -75.31 5.38 C-74.23 -20.1 -56.26 -32.51 -32 -32 C-56.45 -40.15 -76.52 -24 -86 -3 C-89.3 13.49 -87.24 26.15 -78 40 C-97.58 36.74 -97.51 15.67 -97 0 C-84.67 -54.75 -13.26 -53.05 0 0 Z " fill="#3D1D0B" transform="translate(228,193)"/>
<path d="M0 0 C5.77 20.34 3.77 42.31 -14 55 C-36.05 57.45 -46.64 40.08 -53 21 C-51.62 -12.86 -20 -39.99 0 0 Z " fill="#B63305" transform="translate(294,214)"/>
<path d="M0 0 C4.66 1.01 9.33 2.01 14 3 C19 5 19 5 19 7 C20.98 7.66 22.96 8.32 25 9 C26.65 10.98 28.3 12.96 30 15 C30.33 15.33 30.33 15.33 32 17 C36.82 27.06 38.36 34.46 32 44 C32 44.33 32 44.66 32 45 C22 45 22 45 19 44 C17.35 45.32 15.7 46.64 14 48 C-1.84 49.06 -1.84 49.06 -5 38 C-6.32 39.32 -7.64 40.64 -9 42 C-20.44 42 -21.41 41.23 -28 32 C-28 30.68 -28 29.36 -28 28 C-28.66 28.33 -29.32 28.66 -30 29 C-33.56 29.25 -37.12 29.4 -40.69 29.5 C-42.63 29.57 -44.57 29.64 -46.57 29.72 C-51 29 -51 29 -50 22 C-39.95 10.89 -25.33 5.18 -11 2 C-4 -2 -4 -2 0 0 Z " fill="#F1BA37" transform="translate(199,280)"/>
<path d="M0 0 C2.01 3.66 4.01 7.33 6 11 C30.5 44.25 64.05 51.66 103 44 C100.45 49.11 91.91 49.77 87 51 C74.58 55.67 61.85 60.51 58 74 C56.02 74 54.04 74 52 74 C52 72.68 52 71.36 52 70 C49.03 69.67 46.06 69.34 43 69 C37.68 66.44 34.18 64.18 30 60 C28.02 60 26.04 60 24 60 C18 56 18 56 14 51 C13.34 51.17 13.34 51.17 10 52 C1.32 46.79 -2 41.92 -2 32 C-2.66 32.17 -2.66 32.17 -6 33 C-17.5 27.25 -11.35 12.99 -7 4 C-3 -1 -3 -1 0 0 Z " fill="#C56407" transform="translate(90,235)"/>
<path d="M0 0 C7.36 1.23 13 4.92 13 13 C13.99 12.67 14.98 12.34 16 12 C30 12 30 12 34 18 C34 22 34 26 34 30 C35.65 30.99 37.3 31.98 39 33 C44.4 38.4 43.7 42.84 40 49 C32.76 55.2 27.88 56.94 19 60 C14.3 62.27 9.63 64.6 5 67 C-3 71 -3 71 -9 73 C-9 66.14 -8.22 60.68 -7 54 C-6.45 47.1 -5.93 40.2 -5.46 33.3 C-3.46 24.69 0.89 21.74 8 17 C6.6 7.2 6.6 7.2 0 5 C0 3.35 0 1.7 0 0 Z " fill="#D05408" transform="translate(399,352)"/>
<path d="M0 0 C2.28 0 4.56 0 6.92 0 C8.15 0.01 8.15 0.01 14.39 0.03 C15.65 0.03 15.65 0.03 22.04 0.04 C30.12 0.05 38.2 0.08 46.28 0.1 C51.75 0.11 57.22 0.12 62.69 0.13 C76.11 0.15 89.54 0.18 102.97 0.23 C91.46 11.73 79.79 11.38 64.46 11.44 C60.46 11.47 56.46 11.49 52.47 11.52 C46.15 11.57 39.84 11.6 33.53 11.63 C27.44 11.66 21.36 11.7 15.27 11.75 C13.39 11.75 11.51 11.76 9.57 11.76 C0.84 11.84 -6.81 12.19 -15.03 15.23 C-16.35 15.23 -17.67 15.23 -19.03 15.23 C-19.03 0.77 -12.62 -0.03 0 0 Z " fill="#C6EEF9" transform="translate(157.032470703125,328.77294921875)"/>
<path d="M0 0 C0 7 0 7 -3 9 C-13.56 6.89 -13.56 6.89 -16 2 C-26.3 1.13 -35.94 1.87 -41 12 C-48.33 15.67 -48.33 15.67 -52 12 C-52.52 -23.38 -15.04 -30.08 0 0 Z " fill="#FCA21D" transform="translate(294,214)"/>
<path d="M0 0 C-1 4 -1 4 -4 4 C-6.36 0.01 -8.69 -3.99 -11 -8 C-37.33 -42.28 -87.41 -37.39 -118.94 -13.81 C-129.63 -3.56 -136.93 7.8 -140.56 22.19 C-142 27 -142 27 -146 27 C-139.53 -43.28 -31.06 -62.12 0 0 Z " fill="#B1B0B4" transform="translate(236,158)"/>
<path d="M0 0 C1 7 1 7 -3 11 C-13.52 11 -24.6 9.59 -31 0 C-28.51 -17.44 -8.88 -7.4 0 0 Z " fill="#FEFDED" transform="translate(384,121)"/>
<path d="M0 0 C1.83 0.01 3.65 0.01 5.53 0.02 C19.08 0.14 19.08 0.14 21.38 2.44 C17.96 5.85 -2.9 3.89 -7.49 3.96 C-18.69 4.62 -18.69 4.62 -18.5 13.36 C-17.47 22.84 -16.13 32.26 -14.69 41.69 C-9.07 78.59 -9.07 78.59 -9.62 91.44 C-11.85 91.44 -13.84 72.74 -14.38 69.44 C-14.55 68.35 -14.55 68.35 -15.46 62.84 C-16.52 56.38 -17.58 49.91 -18.62 43.44 C-18.91 41.68 -19.2 39.93 -19.49 38.12 C-25.74 -0.47 -25.74 -0.47 0 0 Z " fill="#7ED6F2" transform="translate(144.625,314.5625)"/>
<path d="M0 0 C0 10.5 0 10.5 -7 14 C-15.17 14 -17.9 13.74 -21 6 C-21 -8.65 -8.51 -10.21 0 0 Z " fill="#F9F7ED" transform="translate(208,172)"/>
<path d="M0 0 C1.75 5.56 1.75 5.56 1.75 7.56 C-0.75 7.54 -3.24 7.52 -5.81 7.5 C-13.8 7.56 -18.47 7.78 -24.25 13.56 C-26.25 13.56 -26.25 13.56 -27.31 7.94 C-27.18 -5.67 -5.78 -13.96 0 0 Z " fill="#F9C534" transform="translate(275.25,184.4375)"/>
<path d="M0 0 C0 9 0 9 -5 13 C-18 13 -18 13 -21 7 C-21 -5.96 -8.44 -12.66 0 0 Z " fill="#F9F8EF" transform="translate(351,150)"/>
<path d="M0 0 C0 13.66 -12.93 19.49 -25 21 C-29.64 16.36 -25.23 12.03 -22 8 C-10 0 -10 0 0 0 Z " fill="#FEFDF0" transform="translate(154,144)"/>
<path d="M0 0 C0 6 0 6 -4 9 C-12.16 9 -20.88 7.12 -27 1 C-27 -12.73 -5.4 -8.1 0 0 Z " fill="#FEFBB8" transform="translate(226,100)"/>
<path d="" fill="#7F7F7F" transform="translate(0,0)"/>
<path d="" fill="#000000" transform="translate(0,0)"/>
<path d="" fill="#000000" transform="translate(0,0)"/>
<path d="" fill="#000000" transform="translate(0,0)"/>
<path d="" fill="#FF0000" transform="translate(0,0)"/>
<path d="" fill="#000000" transform="translate(0,0)"/>
<path d="" fill="#000000" transform="translate(0,0)"/>
</svg>
